<?xml version="1.0" standalone="no"?>
<!DOCTYPE svg PUBLIC "-//W3C//DTD SVG 1.1//EN" "http://www.w3.org/Graphics/SVG/1.1/DTD/svg11.dtd">
<svg xmlns="http://www.w3.org/2000/svg">
<metadata>Generated by Fontastic.me</metadata>
<defs>
<font id="media" horiz-adv-x="512">
<font-face font-family="media" units-per-em="512" ascent="480" descent="-32"/>
<missing-glyph horiz-adv-x="512" />

<glyph unicode="&#57344;" d="M400 48l-288 0c-18 0-32 14-32 32l0 16c0 18 14 32 32 32l288 0c18 0 32-14 32-32l0-16c0-18-14-32-32-32z m-288 64c-9 0-16-7-16-16l0-16c0-9 7-16 16-16l288 0c9 0 16 7 16 16l0 16c0 9-7 16-16 16z m288 48l-288 0c-18 0-32 14-32 32 0 6 2 12 6 18l143 224c6 9 16 14 27 14 11 0 21-5 27-14l143-224c4-6 6-12 6-18 0-18-14-32-32-32z m-144 272c-5 0-10-3-13-7l-144-223c-2-4-3-7-3-10 0-9 7-16 16-16l288 0c9 0 16 7 16 16 0 3-1 6-3 10l-144 223c-3 4-8 7-13 7z"/>
<glyph unicode="&#57345;" d="M48 80c-18 0-32 14-32 32l0 288c0 18 14 32 32 32 6 0 12-2 18-6l224-143c9-6 14-16 14-27 0-11-5-21-14-27l-224-143c-6-4-12-6-18-6z m0 336c-9 0-16-7-16-16l0-288c0-9 7-16 16-16 3 0 6 1 10 3l223 144c4 3 7 8 7 13 0 5-3 10-7 13l-223 144c-4 2-7 3-10 3z m416-336c-18 0-32 14-32 32l0 288c0 18 14 32 32 32 18 0 32-14 32-32l0-288c0-18-14-32-32-32z m0 336c-9 0-16-7-16-16l0-288c0-9 7-16 16-16 9 0 16 7 16 16l0 288c0 9-7 16-16 16z m-96-336c-18 0-32 14-32 32l0 288c0 18 14 32 32 32 18 0 32-14 32-32l0-288c0-18-14-32-32-32z m0 336c-9 0-16-7-16-16l0-288c0-9 7-16 16-16 9 0 16 7 16 16l0 288c0 9-7 16-16 16z"/>
<glyph unicode="&#57346;" d="M48 96c-18 0-32 14-32 32l0 240c0 18 14 32 32 32 6 0 12-2 18-6l176-120c9-5 14-15 14-26 0-11-5-21-14-27l-175-119c-7-4-13-6-19-6z m0 288c-9 0-16-7-16-16l0-240c0-9 7-16 16-16 3 0 6 1 10 3l175 120c4 3 7 8 7 13 0 5-3 10-7 13l-175 120c-4 2-7 3-10 3z m240-288c-18 0-32 14-32 32l0 240c0 18 14 32 32 32 6 0 12-2 18-6l176-120c9-5 14-15 14-26 0-11-5-21-14-27l-175-119c-7-4-13-6-19-6z m0 288c-9 0-16-7-16-16l0-240c0-9 7-16 16-16 3 0 6 1 10 3l175 120c4 3 7 8 7 13 0 5-3 10-7 13l-175 120c-4 2-7 3-10 3z"/>
<glyph unicode="&#57347;" d="M80 80c-18 0-32 14-32 32l0 288c0 18 14 32 32 32 6 0 12-2 18-6l224-143c9-6 14-16 14-27 0-11-5-21-14-27l-224-143c-6-4-12-6-18-6z m0 336c-9 0-16-7-16-16l0-288c0-9 7-16 16-16 3 0 6 1 10 3l223 144c4 3 7 8 7 13 0 5-3 10-7 13l-223 144c-4 2-7 3-10 3z m336-336c-18 0-32 14-32 32l0 288c0 18 14 32 32 32 18 0 32-14 32-32l0-288c0-18-14-32-32-32z m0 336c-9 0-16-7-16-16l0-288c0-9 7-16 16-16 9 0 16 7 16 16l0 288c0 9-7 16-16 16z"/>
<glyph unicode="&#57348;" d="M192 80l-32 0c-18 0-32 14-32 32l0 288c0 18 14 32 32 32l32 0c18 0 32-14 32-32l0-288c0-18-14-32-32-32z m-32 336c-9 0-16-7-16-16l0-288c0-9 7-16 16-16l32 0c9 0 16 7 16 16l0 288c0 9-7 16-16 16z m192-336l-32 0c-18 0-32 14-32 32l0 288c0 18 14 32 32 32l32 0c18 0 32-14 32-32l0-288c0-18-14-32-32-32z m-32 336c-9 0-16-7-16-16l0-288c0-9 7-16 16-16l32 0c9 0 16 7 16 16l0 288c0 9-7 16-16 16z"/>
<glyph unicode="&#57349;" d="M144 64c-18 0-32 14-32 32l0 320c0 18 14 32 32 32 6 0 12-2 18-6l240-159c9-6 14-16 14-27 0-11-5-21-14-27l-239-159c-7-4-13-6-19-6z m0 368c-9 0-16-7-16-16l0-320c0-9 7-16 16-16 3 0 6 1 10 3l239 160c4 3 7 8 7 13 0 5-3 10-7 13l-239 160c-4 2-7 3-10 3z"/>
<glyph unicode="&#57350;" d="M96 80c-18 0-32 14-32 32l0 288c0 18 14 32 32 32 18 0 32-14 32-32l0-288c0-18-14-32-32-32z m0 336c-9 0-16-7-16-16l0-288c0-9 7-16 16-16 9 0 16 7 16 16l0 288c0 9-7 16-16 16z m336-336c-6 0-12 2-18 6l-224 143c-9 6-14 16-14 27 0 11 5 21 14 27l224 143c6 4 12 6 18 6 18 0 32-14 32-32l0-288c0-18-14-32-32-32z m0 336c-3 0-6-1-10-3l-223-144c-4-3-7-8-7-13 0-5 3-10 7-13l223-144c4-2 7-3 10-3 9 0 16 7 16 16l0 288c0 9-7 16-16 16z"/>
<glyph unicode="&#57351;" d="M368 64c-6 0-12 2-18 6l-240 159c-9 6-14 16-14 27 0 11 5 21 14 27l239 159c24 15 51-2 51-26l0-320c0-18-14-32-32-32z m0 368c-3 0-6-1-10-3l-239-160c-4-3-7-8-7-13 0-5 3-10 7-13l239-160c13-8 26 1 26 13l0 320c0 9-7 16-16 16z"/>
<glyph unicode="&#57352;" d="M224 96c-6 0-12 2-18 6l-176 120c-9 5-14 15-14 26 0 11 5 21 14 27l175 119c24 15 51-2 51-26l0-240c0-18-14-32-32-32z m0 288c-3 0-6-1-10-3l-175-120c-4-3-7-8-7-13 0-5 3-10 7-13l175-120c13-8 26 1 26 13l0 240c0 9-7 16-16 16z m240-288c-6 0-12 2-18 6l-176 120c-9 5-14 15-14 26 0 11 5 21 14 27l175 119c24 15 51-2 51-26l0-240c0-18-14-32-32-32z m0 288c-3 0-6-1-10-3l-175-120c-4-3-7-8-7-13 0-5 3-10 7-13l175-120c13-8 26 1 26 13l0 240c0 9-7 16-16 16z"/>
<glyph unicode="&#57353;" d="M464 80c-6 0-12 2-18 6l-224 143c-9 6-14 16-14 27 0 11 5 21 14 27l224 143c6 4 12 6 18 6 18 0 32-14 32-32l0-288c0-18-14-32-32-32z m0 336c-3 0-6-1-10-3l-223-144c-4-3-7-8-7-13 0-5 3-10 7-13l223-144c4-2 7-3 10-3 9 0 16 7 16 16l0 288c0 9-7 16-16 16z m-416-336c-18 0-32 14-32 32l0 288c0 18 14 32 32 32 18 0 32-14 32-32l0-288c0-18-14-32-32-32z m0 336c-9 0-16-7-16-16l0-288c0-9 7-16 16-16 9 0 16 7 16 16l0 288c0 9-7 16-16 16z m96-336c-18 0-32 14-32 32l0 288c0 18 14 32 32 32 18 0 32-14 32-32l0-288c0-18-14-32-32-32z m0 336c-9 0-16-7-16-16l0-288c0-9 7-16 16-16 9 0 16 7 16 16l0 288c0 9-7 16-16 16z"/>
<glyph unicode="&#57354;" d="M400 80l-288 0c-18 0-32 14-32 32l0 288c0 18 14 32 32 32l288 0c18 0 32-14 32-32l0-288c0-18-14-32-32-32z m-288 336c-9 0-16-7-16-16l0-288c0-9 7-16 16-16l288 0c9 0 16 7 16 16l0 288c0 9-7 16-16 16z"/>
<glyph unicode="&#57355;" d="M264 176c-40 0-72 32-72 72l0 160c0 40 32 72 72 72 40 0 72-32 72-72l0-160c0-40-32-72-72-72z m0 288c-31 0-56-25-56-56l0-160c0-31 25-56 56-56 31 0 56 25 56 56l0 160c0 31-25 56-56 56z m96-128c-4 0-8-4-8-8l0-80c0-49-39-88-88-88-49 0-88 39-88 88l0 80c0 4-4 8-8 8-4 0-8-4-8-8l0-80c0-55 42-99 96-104l0-96-40 0c-4 0-8-4-8-8 0-4 4-8 8-8l96 0c4 0 8 4 8 8 0 4-4 8-8 8l-40 0 0 96c54 5 96 49 96 104l0 80c0 4-4 8-8 8z"/>
<glyph unicode="&#57356;" d="M392 48l-272 0c-4 0-8 4-8 8l0 176c0 4 4 8 8 8l272 0c4 0 8-4 8-8l0-176c0-4-4-8-8-8z m-264 16l256 0 0 160-256 0z m264 208l-272 0c-4 0-8 4-8 8l0 176c0 4 4 8 8 8l272 0c4 0 8-4 8-8l0-176c0-4-4-8-8-8z m-264 16l256 0 0 160-256 0z m-56 80l-16 0c-4 0-8 4-8 8l0 16c0 4 4 8 8 8l16 0c4 0 8-4 8-8l0-16c0-4-4-8-8-8z m0-64l-16 0c-4 0-8 4-8 8l0 16c0 4 4 8 8 8l16 0c4 0 8-4 8-8l0-16c0-4-4-8-8-8z m0-64l-16 0c-4 0-8 4-8 8l0 16c0 4 4 8 8 8l16 0c4 0 8-4 8-8l0-16c0-4-4-8-8-8z m0-64l-16 0c-4 0-8 4-8 8l0 16c0 4 4 8 8 8l16 0c4 0 8-4 8-8l0-16c0-4-4-8-8-8z m0-128l-16 0c-4 0-8 4-8 8l0 16c0 4 4 8 8 8l16 0c4 0 8-4 8-8l0-16c0-4-4-8-8-8z m0 64l-16 0c-4 0-8 4-8 8l0 16c0 4 4 8 8 8l16 0c4 0 8-4 8-8l0-16c0-4-4-8-8-8z m384 256l-16 0c-4 0-8 4-8 8l0 16c0 4 4 8 8 8l16 0c4 0 8-4 8-8l0-16c0-4-4-8-8-8z m0 64l-16 0c-4 0-8 4-8 8l0 16c0 4 4 8 8 8l16 0c4 0 8-4 8-8l0-16c0-4-4-8-8-8z m-384 0l-16 0c-4 0-8 4-8 8l0 16c0 4 4 8 8 8l16 0c4 0 8-4 8-8l0-16c0-4-4-8-8-8z m384-128l-16 0c-4 0-8 4-8 8l0 16c0 4 4 8 8 8l16 0c4 0 8-4 8-8l0-16c0-4-4-8-8-8z m0-64l-16 0c-4 0-8 4-8 8l0 16c0 4 4 8 8 8l16 0c4 0 8-4 8-8l0-16c0-4-4-8-8-8z m0-64l-16 0c-4 0-8 4-8 8l0 16c0 4 4 8 8 8l16 0c4 0 8-4 8-8l0-16c0-4-4-8-8-8z m0-128l-16 0c-4 0-8 4-8 8l0 16c0 4 4 8 8 8l16 0c4 0 8-4 8-8l0-16c0-4-4-8-8-8z m0 64l-16 0c-4 0-8 4-8 8l0 16c0 4 4 8 8 8l16 0c4 0 8-4 8-8l0-16c0-4-4-8-8-8z"/>
<glyph unicode="&#57357;" d="M461 462c-2 2-4 2-6 2l-272-48c-4-1-7-4-7-8l0-248c0-9-7-16-16-16l-40 0c-43 0-72-23-72-56 0-33 29-56 72-56 43 0 72 23 72 56l0 217 256 45 0-142c0-9-7-16-16-16l-40 0c-43 0-72-23-72-56 0-33 29-56 72-56 43 0 72 23 72 56l0 320c0 2-1 5-3 6z m-285-374c0-30-30-40-56-40-26 0-56 10-56 40 0 30 30 40 56 40l40 0c6 0 11 2 16 4z m272 48c0-30-30-40-56-40-26 0-56 10-56 40 0 30 30 40 56 40l40 0c6 0 11 2 16 4z m-256 186l0 79 256 45 0-79z"/>
<glyph unicode="&#57358;" d="M488 64l-464 0c-4 0-8 4-8 8l0 352c0 4 4 8 8 8l464 0c4 0 8-4 8-8l0-352c0-4-4-8-8-8z m-456 16l448 0 0 336-448 0z m96 192c-26 0-48 22-48 48 0 26 22 48 48 48 26 0 48-22 48-48 0-26-22-48-48-48z m0 80c-18 0-32-14-32-32 0-18 14-32 32-32 18 0 32 14 32 32 0 18-14 32-32 32z m-72-208c-2 0-3 1-5 2-3 2-4 7-1 11 2 3 51 67 94 67 23 0 39-14 53-26 13-11 26-22 43-22 15 0 34 21 52 42 23 27 47 54 76 54 52 0 93-65 95-68 2-4 1-8-3-11-4-2-8-1-11 3 0 0-38 60-81 60-21 0-43-25-64-49-21-24-41-47-64-47-23 0-39 14-53 26-13 11-26 22-43 22-29 0-69-44-82-61-1-2-4-3-6-3z"/>
<glyph unicode="&#57359;" d="M488 32l-464 0c-4 0-8 4-8 8l0 352c0 4 4 8 8 8l464 0c4 0 8-4 8-8l0-352c0-4-4-8-8-8z m-456 16l448 0 0 336-448 0z m96 192c-26 0-48 22-48 48 0 26 22 48 48 48 26 0 48-22 48-48 0-26-22-48-48-48z m0 80c-18 0-32-14-32-32 0-18 14-32 32-32 18 0 32 14 32 32 0 18-14 32-32 32z m-72-208c-2 0-3 1-5 2-3 2-4 7-1 11 2 3 51 67 94 67 23 0 39-14 53-26 13-11 26-22 43-22 15 0 34 21 52 42 23 27 47 54 76 54 52 0 93-65 95-68 2-4 1-8-3-11-4-2-8-1-11 3 0 0-38 60-81 60-21 0-43-25-64-49-21-24-41-47-64-47-23 0-39 14-53 26-13 11-26 22-43 22-29 0-69-44-82-61-1-2-4-3-6-3z m400 304l-400 0c-4 0-8 4-8 8 0 4 4 8 8 8l400 0c4 0 8-4 8-8 0-4-4-8-8-8z m-32 32l-336 0c-4 0-8 4-8 8 0 4 4 8 8 8l336 0c4 0 8-4 8-8 0-4-4-8-8-8z"/>
<glyph unicode="&#57360;" d="M464 256c0 32-24 59-55 63 19 25 17 61-6 84-12 12-28 19-45 19-14 0-28-5-39-13-4 31-31 55-63 55-32 0-59-24-63-55-11 8-25 13-39 13-17 0-33-7-45-19-23-23-25-59-6-84-31-4-55-31-55-63 0-32 24-59 55-63-19-25-17-61 6-84 12-12 28-19 45-19 14 0 28 5 39 13 4-31 31-55 63-55 32 0 59 24 63 55 11-8 25-13 39-13 17 0 33 7 45 19 23 23 25 59 6 84 31 4 55 31 55 63z m-106 150c13 0 25-5 34-14 18-19 18-49 0-68l-4-4-52 0c-7 0-13-1-19-3 2 6 3 12 3 19l0 52 4 4c9 9 21 14 34 14z m-54-266l-25 25c-16 16-18 39-9 57 20-6 34-25 34-46z m-71 25l-25-25 0 36c0 21 14 40 34 46 9-18 7-41-9-57z m-25 207l25-25c16-16 18-39 9-57-20 6-34 25-34 46z m71-25l25 25 0-36c0-21-14-40-34-46-9 18-7 41 9 57z m-7-98c-1-1-3-3-5-4-1-2-3-4-4-5-2 0-5 0-7 0-2 0-5 0-7 0-1 1-3 3-4 5-2 1-4 3-5 4 0 2 0 5 0 7 0 2 0 5 0 7 1 1 3 3 5 4 1 2 3 4 4 5 2 0 5 0 7 0 2 0 5 0 7 0 1-1 3-3 4-5 2-1 4-3 5-4 0-2 0-5 0-7 0-2 0-5 0-7z m-50 21c-7-3-15-5-23-5-12 0-24 5-34 14l-25 25 36 0c22 0 40-14 46-34z m0-28c-6-20-24-34-46-34l-36 0 25 25c10 9 22 14 34 14 8 0 16-2 23-5z m68 0c7 3 15 5 23 5 12 0 24-5 34-14l25-25-36 0c-22 0-40 14-46 34z m0 28c6 20 24 34 46 34l36 0-26-25c-9-9-21-14-33-14-8 0-16 1-23 5z m-34 178c26 0 48-22 48-48l0-5-37-37c-4-5-8-10-11-16-3 6-7 11-11 16l-37 37 0 5c0 26 22 48 48 48z m-136-56c9 9 21 14 34 14 13 0 25-5 34-14l4-4 0-52c0-7 1-13 3-19-6 2-12 3-19 3l-52 0-4 4c-18 19-18 49 0 68z m-56-136c0 26 22 48 48 48l5 0 37-37c5-4 10-8 15-11-5-3-10-7-15-11l-37-37-5 0c-26 0-48 22-48 48z m90-150c-13 0-25 5-34 14-18 19-18 49 0 68l4 4 52 0c7 0 13 1 19 3-2-6-3-12-3-19l0-52-4-4c-9-9-21-14-34-14z m102-42c-26 0-48 22-48 48l0 6 37 36c4 5 8 10 11 16 3-6 7-11 11-16l37-37 0-5c0-26-22-48-48-48z m136 56c-9-9-21-14-34-14-13 0-25 5-34 14l-4 4 0 52c0 7-1 13-3 19 6-2 12-3 19-3l52 0 4-4c18-19 18-49 0-68z m8 88l-6 0-36 37c-5 4-10 8-15 11 5 3 10 7 15 11l37 37 5 0c26 0 48-22 48-48 0-26-22-48-48-48z"/>
<glyph unicode="&#57361;" d="M400 256c0 22-14 40-34 46 10 18 7 41-8 56-9 9-21 14-34 14-8 0-15-2-22-6-6 20-25 34-46 34-21 0-40-14-46-34-7 4-14 6-22 6-13 0-25-5-34-14-15-15-18-38-8-56-20-6-34-25-34-46 0-22 14-40 34-46-10-18-7-41 8-56 9-9 21-14 34-14 8 0 15 2 22 6 6-20 25-34 46-34 21 0 40 14 46 34 7-4 14-6 22-6 13 0 25 5 34 14 15 15 18 38 8 56 20 6 34 24 34 46z m-112-77l-9 9c-9 9-12 21-8 32 10-5 17-16 17-28z m-55 9l-9-9 0 13c0 12 7 23 17 28 4-11 1-23-8-32z m-9 145l9-9c9-9 12-21 8-32-10 5-17 16-17 28z m55-9l9 9 0-13c0-12-7-23-17-28-4 11-1 23 8 32z m-6-75c-2-1-4-3-6-4-1-2-3-4-4-6-2 1-5 1-7 1-2 0-5 0-7-1-1 2-3 4-4 6-2 1-4 3-6 4 1 2 1 5 1 7 0 2 0 5-1 7 2 1 4 3 6 4 1 2 3 4 4 6 2-1 5-1 7-1 2 0 5 0 7 1 1-2 3-4 4-6 2-1 4-3 6-4-1-2-1-5-1-7 0-2 0-5 1-7z m-53 22c-11-3-24-1-32 8l-9 9 13 0c12 0 23-7 28-17z m0-30c-5-10-16-17-28-17l-13 0 9 9c6 6 14 10 23 10 3 0 6-1 9-2z m72 0c3 1 6 2 9 2 9 0 17-4 23-10l9-9-13 0c-12 0-23 7-28 17z m0 30c5 10 16 17 28 17l13 0-9-9c-8-9-21-11-32-8z m55 76c11-12 12-30 2-43l-29 0c-7 0-15-2-21-5 3 6 5 14 5 21l0 29c6 4 13 7 20 7 8 0 16-3 23-9z m-91 37c16 0 30-13 32-28l-21-21c-5-5-9-12-11-18-2 6-6 13-11 18l-21 21c2 15 16 28 32 28z m-91-37c7 6 15 9 23 9 7 0 14-3 20-7l0-29c0-7 2-15 5-21-6 3-14 5-21 5l-29 0c-10 13-9 31 2 43z m-37-91c0 16 13 30 28 32l21-21c5-5 11-9 18-11-7-2-13-6-18-11l-21-21c-15 2-28 16-28 32z m37-91c-11 12-12 30-2 43l29 0c7 0 15 2 21 5-3-7-5-14-5-21l0-29c-12-9-31-9-43 2z m91-37c-16 0-30 13-32 28l21 21c5 5 9 12 11 18 2-6 6-13 11-18l21-21c-2-16-16-28-32-28z m91 37c-12-11-31-11-43-2l0 29c0 7-2 15-5 21 7-3 14-5 21-5l29 0c10-13 9-31-2-43z m9 59l-21 21c-5 5-11 9-18 11 7 2 13 6 18 11l21 21c16-2 28-16 28-32 0-16-12-30-28-32z m132-144l-464 0c-4 0-8 4-8 8l0 336c0 4 4 8 8 8l464 0c4 0 8-4 8-8l0-336c0-4-4-8-8-8z m-456 16l448 0 0 320-448 0z"/>
<glyph unicode="&#57362;" d="M400 224c0 22-14 40-34 46 10 18 7 41-8 56-9 9-21 14-34 14-8 0-15-2-22-6-6 20-25 34-46 34-21 0-40-14-46-34-7 4-14 6-22 6-13 0-25-5-34-14-15-15-18-38-8-56-20-6-34-25-34-46 0-21 14-40 34-46-10-18-7-41 8-56 9-9 21-14 34-14 8 0 15 2 22 6 6-20 25-34 46-34 21 0 40 14 46 34 7-4 14-6 22-6 13 0 25 5 34 14 15 15 18 38 8 56 20 6 34 24 34 46z m-112-77l-9 9c-9 9-12 21-8 32 10-5 17-16 17-28z m-55 9l-9-9 0 13c0 12 7 23 17 28 4-11 1-23-8-32z m-9 145l9-9c9-9 12-21 8-32-10 5-17 16-17 28z m55-9l9 9 0-13c0-12-7-23-17-28-4 11-1 23 8 32z m-6-75c-2-1-4-3-6-4-1-2-3-4-4-6-2 1-5 1-7 1-2 0-5 0-7-1-1 2-3 4-4 6-2 1-4 3-6 4 1 2 1 5 1 7 0 2 0 5-1 7 2 1 4 3 6 4 1 2 3 4 4 6 2-1 5-1 7-1 2 0 5 0 7 1 1-2 3-4 4-6 2-1 4-3 6-4-1-2-1-5-1-7 0-2 0-5 1-7z m-53 22c-3-1-6-2-9-2-9 0-17 4-23 10l-9 9 13 0c12 0 23-7 28-17z m0-30c-5-10-16-17-28-17l-13 0 9 9c6 6 14 10 23 10 3 0 6-1 9-2z m72 0c3 1 6 2 9 2 9 0 17-4 23-10l9-9-13 0c-12 0-23 7-28 17z m0 30c5 10 16 17 28 17l13 0-9-9c-6-6-14-10-23-10-3 0-6 1-9 2z m55 76c11-12 12-30 2-43l-29 0c-7 0-15-2-21-5 3 6 5 14 5 21l0 29c6 4 13 7 20 7 8 0 16-3 23-9z m-91 37c16 0 30-13 32-28l-21-21c-5-5-9-12-11-18-2 6-6 13-11 18l-21 21c2 15 16 28 32 28z m-91-37c7 6 15 9 23 9 7 0 14-3 20-7l0-29c0-7 2-15 5-21-6 3-14 5-21 5l-29 0c-10 13-9 31 2 43z m-37-91c0 16 13 30 28 32l21-21c5-5 11-9 18-11-7-2-13-6-18-11l-21-21c-15 2-28 16-28 32z m37-91c-11 12-12 30-2 43l29 0c7 0 15 2 21 5-3-7-5-14-5-21l0-29c-12-9-31-9-43 2z m91-37c-16 0-30 13-32 28l21 21c5 5 9 12 11 18 2-6 6-13 11-18l21-21c-2-16-16-28-32-28z m91 37c-12-11-31-11-43-2l0 29c0 7-2 15-5 21 7-3 14-5 21-5l29 0c10-13 9-31-2-43z m9 59l-21 21c-5 5-11 9-18 11 7 2 13 6 18 11l21 21c16-2 28-16 28-32 0-16-12-30-28-32z m132-144l-464 0c-4 0-8 4-8 8l0 336c0 4 4 8 8 8l464 0c4 0 8-4 8-8l0-336c0-4-4-8-8-8z m-456 16l448 0 0 320-448 0z m424 352l-400 0c-4 0-8 4-8 8 0 4 4 8 8 8l400 0c4 0 8-4 8-8 0-4-4-8-8-8z m-32 32l-336 0c-4 0-8 4-8 8 0 4 4 8 8 8l336 0c4 0 8-4 8-8 0-4-4-8-8-8z"/>
<glyph unicode="&#57363;" d="M488 64l-464 0c-4 0-8 4-8 8l0 352c0 4 4 8 8 8l464 0c4 0 8-4 8-8l0-352c0-4-4-8-8-8z m-456 16l448 0 0 336-448 0z m96 192c-26 0-48 22-48 48 0 26 22 48 48 48 26 0 48-22 48-48 0-26-22-48-48-48z m0 80c-18 0-32-14-32-32 0-18 14-32 32-32 18 0 32 14 32 32 0 18-14 32-32 32z m334-162l-112 112c-3 3-9 3-12 0l-90-91-42 43c-3 3-9 3-12 0l-144-144c-3-3-3-9 0-12 2-1 4-2 6-2 2 0 4 1 6 2l138 139 90-91c3-3 9-3 12 0 3 3 3 9 0 12l-43 42 85 85 106-107c2-1 4-2 6-2 2 0 4 1 6 2 3 3 3 9 0 12z"/>
<glyph unicode="&#57364;" d="M488 32l-464 0c-4 0-8 4-8 8l0 352c0 4 4 8 8 8l464 0c4 0 8-4 8-8l0-352c0-4-4-8-8-8z m-456 16l448 0 0 336-448 0z m96 192c-26 0-48 22-48 48 0 26 22 48 48 48 26 0 48-22 48-48 0-26-22-48-48-48z m0 80c-18 0-32-14-32-32 0-18 14-32 32-32 18 0 32 14 32 32 0 18-14 32-32 32z m334-162l-112 112c-3 3-9 3-12 0l-90-91-42 43c-3 3-9 3-12 0l-144-144c-3-3-3-9 0-12 2-1 4-2 6-2 2 0 4 1 6 2l138 139 90-91c3-3 9-3 12 0 3 3 3 9 0 12l-43 42 85 85 106-107c2-1 4-2 6-2 2 0 4 1 6 2 3 3 3 9 0 12z m-6 258l-400 0c-4 0-8 4-8 8 0 4 4 8 8 8l400 0c4 0 8-4 8-8 0-4-4-8-8-8z m-32 32l-336 0c-4 0-8 4-8 8 0 4 4 8 8 8l336 0c4 0 8-4 8-8 0-4-4-8-8-8z"/>
<glyph unicode="&#57365;" d="M456 400l-56 0 0 24c0 4-4 8-8 8l-112 0c-4 0-8-4-8-8l0-24-216 0c-4 0-8-4-8-8 0-4 4-8 8-8l216 0 0-24c0-4 4-8 8-8l112 0c4 0 8 4 8 8l0 24 56 0c4 0 8 4 8 8 0 4-4 8-8 8z m-72-32l-96 0 0 48 96 0z m72-112l-216 0 0 24c0 4-4 8-8 8l-112 0c-4 0-8-4-8-8l0-24-56 0c-4 0-8-4-8-8 0-4 4-8 8-8l56 0 0-24c0-4 4-8 8-8l112 0c4 0 8 4 8 8l0 24 216 0c4 0 8 4 8 8 0 4-4 8-8 8z m-232-32l-96 0 0 48 96 0z m232-112l-136 0 0 24c0 4-4 8-8 8l-112 0c-4 0-8-4-8-8l0-24-136 0c-4 0-8-4-8-8 0-4 4-8 8-8l136 0 0-24c0-4 4-8 8-8l112 0c4 0 8 4 8 8l0 24 136 0c4 0 8 4 8 8 0 4-4 8-8 8z m-152-32l-96 0 0 48 96 0z"/>
<glyph unicode="&#57366;" d="M432 32l-368 0c-18 0-32 14-32 32l0 368c0 18 14 32 32 32l368 0c18 0 32-14 32-32l0-368c0-18-14-32-32-32z m-368 416c-9 0-16-7-16-16l0-368c0-9 7-16 16-16l368 0c9 0 16 7 16 16l0 368c0 9-7 16-16 16z m344-80l-40 0 0 24c0 4-4 8-8 8l-80 0c-4 0-8-4-8-8l0-24-184 0c-4 0-8-4-8-8 0-4 4-8 8-8l184 0 0-24c0-4 4-8 8-8l80 0c4 0 8 4 8 8l0 24 40 0c4 0 8 4 8 8 0 4-4 8-8 8z m-56-32l-64 0 0 48 64 0z m56-80l-184 0 0 24c0 4-4 8-8 8l-80 0c-4 0-8-4-8-8l0-24-40 0c-4 0-8-4-8-8 0-4 4-8 8-8l40 0 0-24c0-4 4-8 8-8l80 0c4 0 8 4 8 8l0 24 184 0c4 0 8 4 8 8 0 4-4 8-8 8z m-200-32l-64 0 0 48 64 0z m200-80l-104 0 0 24c0 4-4 8-8 8l-80 0c-4 0-8-4-8-8l0-24-120 0c-4 0-8-4-8-8 0-4 4-8 8-8l120 0 0-24c0-4 4-8 8-8l80 0c4 0 8 4 8 8l0 24 104 0c4 0 8 4 8 8 0 4-4 8-8 8z m-120-32l-64 0 0 48 64 0z"/>
<glyph unicode="&#57367;" d="M144 344c0 28-21 51-48 55l0 57c0 4-4 8-8 8-4 0-8-4-8-8l0-57c-27-4-48-27-48-55 0-28 21-51 48-55l0-233c0-4 4-8 8-8 4 0 8 4 8 8l0 233c27 4 48 27 48 55z m-56-40c-22 0-40 18-40 40 0 22 18 40 40 40 22 0 40-18 40-40 0-22-18-40-40-40z m216-136c0 28-21 51-48 55l0 233c0 4-4 8-8 8-4 0-8-4-8-8l0-233c-27-4-48-27-48-55 0-28 21-51 48-55l0-57c0-4 4-8 8-8 4 0 8 4 8 8l0 57c27 4 48 27 48 55z m-56-40c-22 0-40 18-40 40 0 22 18 40 40 40 22 0 40-18 40-40 0-22-18-40-40-40z m216 152c0 28-21 51-48 55l0 121c0 4-4 8-8 8-4 0-8-4-8-8l0-121c-27-4-48-27-48-55 0-28 21-51 48-55l0-169c0-4 4-8 8-8 4 0 8 4 8 8l0 169c27 4 48 27 48 55z m-56-40c-22 0-40 18-40 40 0 22 18 40 40 40 22 0 40-18 40-40 0-22-18-40-40-40z"/>
<glyph unicode="&#57368;" d="M432 32l-368 0c-18 0-32 14-32 32l0 368c0 18 14 32 32 32l368 0c18 0 32-14 32-32l0-368c0-18-14-32-32-32z m-368 416c-9 0-16-7-16-16l0-368c0-9 7-16 16-16l368 0c9 0 16 7 16 16l0 368c0 9-7 16-16 16z m224-280c0 19-14 35-32 39l0 201c0 4-4 8-8 8-4 0-8-4-8-8l0-201c-18-4-32-20-32-39 0-19 14-35 32-39l0-41c0-4 4-8 8-8 4 0 8 4 8 8l0 41c18 4 32 20 32 39z m-40-24c-13 0-24 11-24 24 0 13 11 24 24 24 13 0 24-11 24-24 0-13-11-24-24-24z m152 104c0 19-14 35-32 39l0 121c0 4-4 8-8 8-4 0-8-4-8-8l0-121c-18-4-32-20-32-39 0-19 14-35 32-39l0-121c0-4 4-8 8-8 4 0 8 4 8 8l0 121c18 4 32 20 32 39z m-40-24c-13 0-24 11-24 24 0 13 11 24 24 24 13 0 24-11 24-24 0-13-11-24-24-24z m-184 104c0 19-14 35-32 39l0 41c0 4-4 8-8 8-4 0-8-4-8-8l0-41c-18-4-32-20-32-39 0-19 14-35 32-39l0-201c0-4 4-8 8-8 4 0 8 4 8 8l0 201c18 4 32 20 32 39z m-40-24c-13 0-24 11-24 24 0 13 11 24 24 24 13 0 24-11 24-24 0-13-11-24-24-24z"/>
<glyph unicode="&#57369;" d="M352 256c0 35-18 66-48 83l0 101c0 13-11 24-24 24-5 0-10-2-15-5l-148-123-53 0c-18 0-32-14-32-32l0-96c0-18 14-32 32-32l53 0 149-123c4-3 9-5 14-5 13 0 24 11 24 24l0 101c30 17 48 48 48 83z m-64-184c0-4-4-8-8-8-2 0-3 1-5 1l-150 125c-1 1-3 2-5 2l-56 0c-9 0-16 7-16 16l0 96c0 9 7 16 16 16l56 0c2 0 4 1 5 2l150 124c2 1 3 2 5 2 4 0 8-4 8-8z m16 120l0 128c20-15 32-39 32-64 0-25-12-49-32-64z m106-82c-2 0-5 1-6 3-3 3-3 8 1 11 37 34 59 82 59 132 0 50-22 98-59 132-3 3-4 8-1 11 3 3 8 4 11 1 41-37 65-89 65-144 0-55-24-107-65-144-1-1-3-2-5-2z m-46 45c-2 0-4 1-6 3-3 4-2 9 1 12 26 21 41 52 41 86 0 33-15 65-40 86-4 3-4 8-1 11 2 4 7 4 11 1 29-24 46-60 46-98 0-38-17-74-47-99-1-1-3-2-5-2z"/>
<glyph unicode="&#57370;" d="M384 256c0 35-18 66-48 83l0 101c0 13-11 24-24 24-5 0-10-2-15-5l-148-123-53 0c-18 0-32-14-32-32l0-96c0-18 14-32 32-32l53 0 149-123c4-3 9-5 14-5 13 0 24 11 24 24l0 101c30 17 48 48 48 83z m-64-184c0-4-4-8-8-8-2 0-3 1-5 1l-150 125c-1 1-3 2-5 2l-56 0c-9 0-16 7-16 16l0 96c0 9 7 16 16 16l56 0c2 0 4 1 5 2l150 124c2 1 3 2 5 2 4 0 8-4 8-8z m16 120l0 128c20-15 32-39 32-64 0-25-12-49-32-64z m60-37c-2 0-4 1-6 3-3 4-2 9 1 12 26 21 41 52 41 86 0 33-15 65-40 86-4 3-4 8-1 11 2 4 7 4 11 1 29-24 46-60 46-98 0-38-17-74-47-99-1-1-3-2-5-2z"/>
<glyph unicode="&#57371;" d="M352 256c0 35-18 66-48 83l0 101c0 13-11 24-24 24-5 0-10-2-15-5l-148-123-53 0c-18 0-32-14-32-32l0-96c0-18 14-32 32-32l53 0 149-123c4-3 9-5 14-5 13 0 24 11 24 24l0 101c30 17 48 48 48 83z m-64-184c0-4-4-8-8-8-2 0-3 1-5 1l-150 125c-1 1-3 2-5 2l-56 0c-9 0-16 7-16 16l0 96c0 9 7 16 16 16l56 0c2 0 4 1 5 2l150 124c2 1 3 2 5 2 4 0 8-4 8-8z m16 120l0 128c20-15 32-39 32-64 0-25-12-49-32-64z m139 64l51 50c3 3 3 9 0 12-3 3-9 3-12 0l-50-51-50 51c-3 3-9 3-12 0-3-3-3-9 0-12l51-50-51-50c-3-3-3-9 0-12 2-1 4-2 6-2 2 0 4 1 6 2l50 51 50-51c2-1 4-2 6-2 2 0 4 1 6 2 3 3 3 9 0 12z"/>
<glyph unicode="&#57372;" d="M416 256c0 35-18 66-48 83l0 101c0 13-11 24-24 24-5 0-10-2-15-5l-148-123-53 0c-18 0-32-14-32-32l0-96c0-18 14-32 32-32l53 0 149-123c4-3 9-5 14-5 13 0 24 11 24 24l0 101c30 17 48 48 48 83z m-64-184c0-4-4-8-8-8-2 0-3 1-5 1l-150 125c-1 1-3 2-5 2l-56 0c-9 0-16 7-16 16l0 96c0 9 7 16 16 16l56 0c2 0 4 1 5 2l150 124c2 1 3 2 5 2 4 0 8-4 8-8z m16 120l0 128c20-15 32-39 32-64 0-25-12-49-32-64z"/>
</font>
</defs>
</svg>
